:FULLY-SPECIFIED
:FORCE-ALL-JOINTS-BE-3DOF
:DEGREES
1019
root 1.1403 15.1558 32.4486 4.87051 -3.57484 363.578
lfemur 8.58274 0.598044 5.76528
ltibia -0.121866 0 0
lfoot -30.0947 -11.0749 0
ltoes -34.3951 0 0
rfemur -31.7421 -15.9357 -5.99484
rtibia 50.3503 0 0
rfoot -22.3397 5.01618 0
rtoes -42.1614 0 0
lowerback -1.45364 -0.15176 0.285765
upperback -0.539165 -0.190448 -5.96506
thorax 0.239447 -0.102514 -6.35011
lowerneck -7.13723 0.939041 6.32421
upperneck 1.64478 0.560279 3.53638
head 1.73781 0.416108 0.061334
lclavicle 1.512e-015 -1.21243e-014 0
lhumerus -58.6544 -46.4255 115.294
lradius 55.6538 0 0
lwrist 25.2152 0 0
lhand 37.2404 24.9453 0
lfingers 7.12502 0 0
lthumb 60.0715 38.6554 0
rclavicle 1.512e-015 -1.21243e-014 0
rhumerus 2.8726 -23.903 0.22601
rradius 27.6108 0 0
rwrist -10.2439 0 0
rhand -30.6747 -42.9019 0
rfingers 7.12502 0 0
rthumb -3.96906 -792.846 0
1020
root 1.14191 15.1565 32.4493 4.86339 -3.54187 363.565
lfemur 8.56697 0.566435 5.77084
ltibia -0.104172 0 0
lfoot -30.1001 -11.0668 0
ltoes -34.3975 0 0
rfemur -31.6995 -15.939 -5.99661
rtibia 50.3261 0 0
rfoot -22.3191 5.01234 0
rtoes -42.1628 0 0
lowerback -1.45758 -0.144647 0.269865
upperback -0.537351 -0.180403 -5.96952
thorax 0.24472 -0.0973149 -6.34559
lowerneck -7.14841 0.930106 6.32884
upperneck 1.65788 0.546253 3.54268
head 1.74391 0.409865 0.0621251
lclavicle 1.61835e-015 -1.18207e-014 0
lhumerus -58.6635 -46.4554 115.301
lradius 55.6707 0 0
lwrist 25.2194 0 0
lhand 37.2517 24.9593 0
lfingers 7.12502 0 0
lthumb 60.081 38.6581 0
rclavicle 1.61835e-015 -1.18207e-014 0
rhumerus 2.84536 -23.9024 0.220946
rradius 27.6063 0 0
rwrist -10.2218 0 0
rhand -30.68 -42.872 0
rfingers 7.12502 0 0
rthumb -3.97412 -792.816 0
1021
root 1.14351 15.1572 32.4502 4.85659 -3.51118 363.553
lfemur 8.55249 0.537007 5.77609
ltibia -0.0864132 0 0
lfoot -30.1065 -11.0586 0
ltoes -34.4001 0 0
rfemur -31.6588 -15.9417 -5.99831
rtibia 50.3031 0 0
rfoot -22.2997 5.00963 0
rtoes -42.1623 0 0
lowerback -1.46173 -0.137879 0.254298
upperback -0.535461 -0.170813 -5.97345
thorax 0.250139 -0.0923439 -6.3407
lowerneck -7.15872 0.9216 6.33361
upperneck 1.6696 0.53293 3.5488
head 1.74942 0.40391 0.0628514
lclavicle 1.73444e-015 -1.15637e-014 0
lhumerus -58.6716 -46.4839 115.307
lradius 55.6865 0 0
lwrist 25.2237 0 0
lhand 37.2622 24.9729 0
lfingers 7.12502 0 0
lthumb 60.0898 38.6613 0
rclavicle 1.73444e-015 -1.15637e-014 0
rhumerus 2.81889 -23.8996 0.217661
rradius 27.6017 0 0
rwrist -10.1996 0 0
rhand -30.6837 -42.8419 0
rfingers 7.12502 0 0
rthumb -3.97767 -792.785 0
1022
root 1.14508 15.1578 32.4512 4.8501 -3.48295 363.542
lfemur 8.53946 0.509931 5.78106
ltibia -0.0686853 0 0
lfoot -30.1139 -11.0502 0
ltoes -34.4031 0 0
rfemur -31.6201 -15.9438 -5.99989
rtibia 50.2815 0 0
rfoot -22.2818 5.00816 0
rtoes -42.1596 0 0
lowerback -1.46608 -0.13148 0.239106
upperback -0.533474 -0.161712 -5.9768
thorax 0.255714 -0.0876171 -6.33542
lowerneck -7.16812 0.913572 6.33858
upperneck 1.67984 0.520381 3.55471
head 1.75429 0.398277 0.063501
lclavicle 1.86094e-015 -1.13578e-014 0
lhumerus -58.6787 -46.5108 115.314
lradius 55.7012 0 0
lwrist 25.2281 0 0
lhand 37.2715 24.986 0
lfingers 7.12502 0 0
lthumb 60.0977 38.6651 0
rclavicle 1.86094e-015 -1.13578e-014 0
rhumerus 2.79325 -23.8942 0.216383
rradius 27.5969 0 0
rwrist -10.1773 0 0
rhand -30.6856 -42.8116 0
rfingers 7.12502 0 0
rthumb -3.97947 -792.754 0
1023
root 1.14664 15.1583 32.4523 4.84392 -3.45739 363.53
lfemur 8.52806 0.485373 5.78578
ltibia -0.0510841 0 0
lfoot -30.1224 -11.0414 0
ltoes -34.4065 0 0
rfemur -31.5836 -15.9453 -6.0013
rtibia 50.2615 0 0
rfoot -22.2655 5.00805 0
rtoes -42.1548 0 0
lowerback -1.47062 -0.125475 0.224333
upperback -0.531366 -0.153135 -5.97952
thorax 0.261456 -0.0831509 -6.32971
lowerneck -7.17652 0.906074 6.3438
upperneck 1.68851 0.50868 3.5604
head 1.75848 0.392999 0.0640621
lclavicle 1.99855e-015 -1.12074e-014 0
lhumerus -58.6846 -46.5361 115.321
lradius 55.7146 0 0
lwrist 25.2325 0 0
lhand 37.2797 24.9985 0
lfingers 7.12502 0 0
lthumb 60.1046 38.6696 0
rclavicle 1.99855e-015 -1.12074e-014 0
rhumerus 2.76852 -23.8858 0.21734
rradius 27.592 0 0
rwrist -10.1548 0 0
rhand -30.6854 -42.7809 0
rfingers 7.12502 0 0
rthumb -3.97926 -792.723 0
1024
root 1.14817 15.1588 32.4535 4.83804 -3.43467 363.519
lfemur 8.51845 0.463504 5.79029
ltibia -0.0337055 0 0
lfoot -30.132 -11.0323 0
ltoes -34.4103 0 0
rfemur -31.5496 -15.9463 -6.00248
rtibia 50.2433 0 0
rfoot -22.251 5.0094 0
rtoes -42.1475 0 0
lowerback -1.47532 -0.119889 0.210023
upperback -0.529116 -0.145113 -5.98154
thorax 0.267374 -0.0789618 -6.32354
lowerneck -7.18389 0.899156 6.34932
upperneck 1.6955 0.4979 3.56585
head 1.76195 0.388106 0.0645227
lclavicle 2.14794e-015 -1.11166e-014 0
lhumerus -58.6892 -46.5598 115.328
lradius 55.7266 0 0
lwrist 25.2371 0 0
lhand 37.2865 25.0105 0
lfingers 7.12502 0 0
lthumb 60.1103 38.675 0
rclavicle 2.14794e-015 -1.11166e-014 0
rhumerus 2.74476 -23.8742 0.22076
rradius 27.5869 0 0
rwrist -10.132 0 0
rhand -30.6828 -42.7498 0
rfingers 7.12502 0 0
rthumb -3.97679 -792.692 0
1025
root 1.14966 15.1591 32.4547 4.83243 -3.415 363.508
lfemur 8.51079 0.444491 5.79461
ltibia -0.0166455 0 0
lfoot -30.1429 -11.0227 0
ltoes -34.4147 0 0
rfemur -31.5181 -15.9467 -6.00339
rtibia 50.2269 0 0
rfoot -22.2383 5.01233 0
rtoes -42.1377 0 0
lowerback -1.48017 -0.114747 0.19622
upperback -0.526699 -0.137682 -5.98281
thorax 0.273481 -0.0750662 -6.31686
lowerneck -7.19016 0.892869 6.3552
upperneck 1.70073 0.488114 3.57105
head 1.76466 0.383633 0.0648711
lclavicle 2.3098e-015 -1.109e-014 0
lhumerus -58.6925 -46.5817 115.335
lradius 55.7373 0 0
lwrist 25.2418 0 0
lhand 37.2919 25.0219 0
lfingers 7.12502 0 0
lthumb 60.1148 38.6812 0
rclavicle 2.3098e-015 -1.109e-014 0
rhumerus 2.72206 -23.8589 0.226873
rradius 27.5814 0 0
rwrist -10.109 0 0
rhand -30.6776 -42.718 0
rfingers 7.12502 0 0
rthumb -3.9718 -792.66 0
1026
root 1.15111 15.1593 32.4561 4.8271 -3.39857 363.498
lfemur 8.50526 0.428502 5.79878
ltibia -1.90833e-014 0 0
lfoot -30.155 -11.0126 0
ltoes -34.4198 0 0
rfemur -31.4895 -15.9466 -6.00398
rtibia 50.2125 0 0
rfoot -22.2278 5.01696 0
rtoes -42.1253 0 0
lowerback -1.48515 -0.110075 0.182968
upperback -0.524095 -0.130875 -5.98328
thorax 0.279786 -0.0714806 -6.30964
lowerneck -7.19527 0.887263 6.36149
upperneck 1.70409 0.479394 3.57599
head 1.76656 0.37961 0.0650953
lclavicle 2.48481e-015 -1.11319e-014 0
lhumerus -58.6944 -46.6018 115.342
lradius 55.7464 0 0
lwrist 25.2466 0 0
lhand 37.2956 25.0327 0
lfingers 7.12502 0 0
lthumb 60.118 38.6885 0
rclavicle 2.48481e-015 -1.11319e-014 0
rhumerus 2.70047 -23.8397 0.235906
rradius 27.5757 0 0
rwrist -10.0856 0 0
rhand -30.6696 -42.6856 0
rfingers 7.12502 0 0
rthumb -3.96404 -792.628 0
1027
root 1.15259 15.1595 32.4576 4.82198 -3.38387 363.488
lfemur 8.50075 0.414184 5.80271
ltibia 0.0171969 0 0
lfoot -30.1684 -11.0022 0
ltoes -34.4251 0 0
rfemur -31.4619 -15.9459 -6.00456
rtibia 50.1989 0 0
rfoot -22.2181 5.02273 0
rtoes -42.1107 0 0
lowerback -1.49048 -0.105616 0.169695
upperback -0.521374 -0.124335 -5.98328
thorax 0.286378 -0.0680248 -6.30192
lowerneck -7.19968 0.88191 6.36802
upperneck 1.70622 0.471109 3.58087
head 1.76794 0.375754 0.0652703
lclavicle 2.6732e-015 -1.12179e-014 0
lhumerus -58.6954 -46.621 115.349
lradius 55.7547 0 0
lwrist 25.2516 0 0
lhand 37.2986 25.0433 0
lfingers 7.12502 0 0
lthumb 60.1206 38.6964 0
rclavicle 2.6732e-015 -1.12179e-014 0
rhumerus 2.67908 -23.8181 0.246741
rradius 27.5698 0 0
rwrist -10.0616 0 0
rhand -30.66 -42.6524 0
rfingers 7.12502 0 0
rthumb -3.95482 -792.595 0
